<?xml version="1.0" standalone="no"?>
<!DOCTYPE svg PUBLIC "-//W3C//DTD SVG 20010904//EN"
 "http://www.w3.org/TR/2001/REC-SVG-20010904/DTD/svg10.dtd">
<svg version="1.0" xmlns="http://www.w3.org/2000/svg"
 width="1551.000000pt" height="525.000000pt" viewBox="0 0 1551.000000 525.000000"
 preserveAspectRatio="xMidYMid meet">

<g transform="translate(0.000000,525.000000) scale(0.100000,-0.100000)"
fill="#000000" stroke="none">
<path d="M3533 4951 c-45 -29 -59 -54 -84 -156 -26 -107 -28 -250 -5 -401 22
-143 37 -183 122 -334 102 -179 122 -224 139 -315 17 -88 20 -268 5 -345 -5
-29 -22 -76 -37 -106 -61 -118 -289 -343 -363 -359 -19 -4 -47 -14 -62 -21
-38 -19 -52 -18 -154 15 -103 33 -212 53 -413 77 -124 15 -159 16 -243 5 -185
-23 -599 -139 -711 -199 -27 -14 -58 -39 -69 -54 -11 -16 -43 -40 -71 -55 -29
-14 -71 -39 -93 -55 l-42 -30 -163 63 c-164 63 -164 63 -286 67 -148 5 -177
-3 -301 -83 -99 -65 -138 -98 -158 -137 -14 -27 -14 -28 11 -28 21 0 25 -5 25
-29 0 -27 3 -30 38 -33 33 -3 37 -6 40 -34 3 -26 7 -31 23 -27 10 3 19 0 19
-6 0 -7 23 -11 64 -11 61 0 64 -1 76 -29 7 -18 24 -34 42 -40 40 -14 124 -14
150 0 16 9 23 7 35 -10 8 -12 37 -33 65 -47 l51 -26 -7 46 c-9 55 -3 56 63 16
39 -25 50 -37 55 -66 6 -29 11 -34 26 -29 15 5 20 0 26 -30 6 -33 24 -60 24
-36 0 6 5 11 10 11 6 0 10 -11 10 -24 0 -14 5 -28 10 -31 5 -3 10 -1 10 5 0 6
5 8 10 5 5 -3 10 -27 10 -53 1 -49 4 -48 36 4 9 16 13 12 28 -32 10 -31 30
-64 51 -82 18 -17 46 -53 62 -79 27 -46 28 -47 31 -21 l3 28 50 -49 c53 -53
103 -71 192 -71 63 0 77 -14 37 -35 -58 -30 -91 -36 -222 -44 -115 -6 -130 -9
-153 -31 -45 -42 -75 -117 -75 -186 0 -78 -5 -92 -250 -634 -21 -47 -50 -110
-63 -141 -38 -87 -77 -123 -168 -159 -44 -17 -108 -38 -142 -47 -142 -36 -387
-193 -387 -248 0 -11 12 -15 44 -15 25 0 48 -4 51 -10 12 -19 66 -10 129 20
56 27 71 30 147 28 63 -1 92 3 116 15 23 12 57 17 116 17 66 0 89 4 106 18 11
9 85 168 167 357 80 187 161 374 179 415 82 189 121 250 162 250 28 0 63 33
63 60 0 30 79 77 248 147 l154 63 153 0 153 0 25 -82 c15 -46 38 -129 53 -185
26 -99 27 -106 14 -186 -18 -121 -9 -169 44 -222 54 -53 101 -70 170 -60 136
20 332 -12 646 -107 74 -22 145 -47 158 -56 31 -20 61 -81 69 -139 8 -59 28
-78 96 -93 50 -12 59 -11 94 7 l38 19 40 -22 c51 -29 111 -40 131 -24 11 10
18 9 33 -4 10 -9 35 -20 55 -23 33 -5 36 -4 36 18 0 40 -18 91 -42 116 -12 13
-62 45 -110 70 -70 37 -92 54 -106 82 -12 25 -32 44 -67 62 -38 19 -56 37 -75
73 -14 26 -37 56 -50 67 -37 29 -113 47 -225 54 -133 8 -262 29 -420 67 -147
35 -161 40 -170 67 -6 21 -44 39 -90 43 -28 3 -31 8 -54 83 -20 68 -24 108
-28 265 l-5 185 69 37 c62 32 73 35 112 28 55 -10 136 1 179 24 32 16 36 16
69 0 47 -21 150 -15 215 14 122 54 267 251 327 446 37 121 29 178 -51 348
l-51 107 36 48 c172 230 264 415 303 603 14 69 16 115 11 245 -4 91 -13 186
-21 220 -9 33 -68 164 -131 290 -164 329 -192 441 -135 543 22 40 75 82 103
82 9 0 31 16 48 35 30 33 36 35 93 35 72 0 112 20 97 49 -9 17 -31 25 -127 50
-30 8 -44 18 -48 34 -3 12 -29 38 -58 57 -44 28 -64 35 -118 38 -52 2 -71 -1
-97 -17z"/>
<path d="M8450 4645 c-500 -82 -821 -522 -770 -1057 36 -380 263 -683 600
-800 144 -50 327 -68 486 -48 395 49 680 294 784 672 58 214 41 487 -43 695
-101 247 -342 452 -617 522 -110 29 -320 36 -440 16z m317 -300 c259 -49 416
-240 455 -551 9 -74 9 -119 -1 -199 -20 -179 -68 -292 -164 -393 -107 -111
-219 -160 -387 -169 -186 -9 -326 37 -443 147 -109 103 -166 225 -188 410 -15
124 -1 272 35 380 99 291 368 437 693 375z"/>
<path d="M10290 4646 c-140 -30 -237 -83 -325 -177 -107 -117 -156 -269 -136
-428 32 -249 157 -364 516 -472 171 -51 238 -84 293 -142 49 -55 56 -77 50
-167 -6 -86 -41 -150 -104 -189 -67 -43 -120 -54 -236 -49 -117 5 -175 26
-309 113 -126 81 -150 74 -239 -71 l-54 -87 45 -40 c196 -174 539 -250 799
-177 209 59 361 214 415 425 20 79 20 236 -1 305 -35 117 -128 220 -256 282
-40 20 -147 62 -237 93 -254 87 -321 129 -351 220 -27 81 13 188 88 236 67 43
113 52 227 46 108 -5 137 -14 246 -77 83 -49 112 -57 143 -37 28 19 132 206
119 216 -84 72 -204 134 -312 162 -99 26 -291 34 -381 15z"/>
<path d="M5770 3695 l0 -945 155 0 155 0 -2 654 c-2 360 0 652 3 650 3 -2 230
-289 504 -638 363 -463 506 -639 530 -650 23 -11 64 -16 139 -16 l106 0 0 945
0 945 -156 0 -156 0 4 -655 c2 -479 0 -651 -8 -642 -6 7 -222 282 -479 612
-257 330 -487 619 -511 643 l-43 42 -120 0 -121 0 0 -945z"/>
<path d="M11160 4495 l0 -145 285 0 285 0 0 -800 0 -800 175 0 175 0 0 800 0
800 285 0 285 0 0 145 0 145 -745 0 -745 0 0 -145z"/>
<path d="M12900 3695 l0 -945 175 0 175 0 0 371 0 371 103 -4 c78 -2 110 -8
131 -21 16 -11 122 -162 247 -351 191 -290 224 -335 257 -350 31 -14 66 -16
210 -14 l173 3 -240 355 c-147 217 -259 373 -289 400 l-49 46 86 41 c204 97
321 278 321 496 0 249 -123 414 -369 497 -115 38 -251 50 -603 50 l-328 0 0
-945z m742 651 c146 -39 212 -127 211 -281 0 -93 -24 -159 -76 -213 -81 -85
-174 -112 -381 -112 l-146 0 0 317 0 316 168 -6 c99 -4 190 -12 224 -21z"/>
<path d="M5790 1236 l0 -926 378 0 c274 0 400 4 462 14 353 58 593 279 684
632 26 103 37 266 25 392 -37 405 -257 680 -625 783 -74 21 -104 22 -501 26
l-423 5 0 -926z m885 791 c196 -56 355 -185 439 -358 70 -144 90 -241 90 -434
0 -169 -16 -262 -63 -383 -56 -142 -191 -290 -324 -356 -134 -66 -207 -76
-574 -76 l-323 0 0 816 0 815 348 -3 c288 -4 357 -7 407 -21z"/>
<path d="M7780 1235 l0 -925 550 0 c517 0 550 1 550 18 0 9 3 34 6 54 l7 38
-492 0 -491 0 0 385 0 385 405 0 405 0 0 55 0 55 -405 0 -405 0 0 375 0 375
485 0 485 0 0 55 0 55 -550 0 -550 0 0 -925z"/>
<path d="M9084 2083 c18 -43 190 -459 382 -925 l349 -848 60 0 60 0 380 923
381 922 -60 3 c-47 2 -63 -1 -77 -15 -17 -18 -625 -1493 -664 -1612 l-21 -63
-18 58 c-28 91 -647 1597 -664 1617 -11 13 -31 17 -78 17 l-63 0 33 -77z"/>
<path d="M11710 1235 l0 -925 70 0 70 0 0 445 0 445 86 0 c56 0 97 -5 118 -15
17 -8 218 -207 446 -440 227 -234 423 -428 435 -431 11 -3 47 -4 79 -2 l58 3
-440 459 c-241 252 -450 465 -463 472 -24 14 -21 17 264 307 159 160 356 363
439 450 l150 157 -60 0 c-33 0 -71 -4 -85 -9 -13 -5 -201 -191 -417 -414 -216
-223 -404 -410 -417 -416 -13 -6 -62 -11 -108 -11 l-85 0 0 425 0 425 -70 0
-70 0 0 -925z"/>
<path d="M13370 1235 l0 -925 70 0 70 0 0 925 0 925 -70 0 -70 0 0 -925z"/>
<path d="M13820 2100 l0 -60 325 0 325 0 0 -865 0 -865 70 0 70 0 0 865 0 865
323 2 322 3 3 58 3 57 -721 0 -720 0 0 -60z"/>
</g>
</svg>
